HIERARCHY
ROOT hip
{
  OFFSET -88.1986 79.0262 263.975
  CHANNELS 6 Xposition Yposition Zposition Zrotation Xrotation Yrotation
  JOINT abdomen
  {
    OFFSET 0 20.6881 -0.73152
    CHANNELS 3 Zrotation Xrotation Yrotation
    JOINT chest
    {
      OFFSET 0 11.7043 -0.48768
      CHANNELS 3 Zrotation Xrotation Yrotation
      JOINT neck
      {
        OFFSET 0 22.1894 -2.19456
        CHANNELS 3 Zrotation Xrotation Yrotation
        JOINT head
        {
          OFFSET -0.24384 7.07133 1.2192
          CHANNELS 3 Zrotation Xrotation Yrotation
          JOINT leftEye
          {
            OFFSET 4.14528 8.04674 8.04672
            CHANNELS 3 Zrotation Xrotation Yrotation
            End Site
            {
              OFFSET 1 0 0
            }
          }
          JOINT rightEye
          {
            OFFSET -3.6576 8.04674 8.04672
            CHANNELS 3 Zrotation Xrotation Yrotation
            End Site
            {
              OFFSET 1 0 0
            }
          }
        }
      }
      JOINT rCollar
      {
        OFFSET -2.68224 19.2634 -4.8768
        CHANNELS 3 Zrotation Xrotation Yrotation
        JOINT rShldr
        {
          OFFSET -8.77824 -1.95073 1.46304
          CHANNELS 3 Zrotation Xrotation Yrotation
          JOINT rForeArm
          {
            OFFSET -28.1742 -1.7115 0.48768
            CHANNELS 3 Zrotation Xrotation Yrotation
            JOINT rHand
            {
              OFFSET -22.5879 0.773209 7.07136
              CHANNELS 3 Zrotation Xrotation Yrotation
              JOINT rThumb1
              {
                OFFSET -1.2192 -0.487915 3.41376
                CHANNELS 3 Zrotation Xrotation Yrotation
                JOINT rThumb2
                {
                  OFFSET -3.37035 -0.52449 3.41376
                  CHANNELS 3 Zrotation Xrotation Yrotation
                  End Site
                  {
                    OFFSET -1.78271 -1.18214 1.43049
                  }
                }
              }
              JOINT rIndex1
              {
                OFFSET -7.75947 0.938293 5.60832
                CHANNELS 3 Zrotation Xrotation Yrotation
                JOINT rIndex2
                {
                  OFFSET -2.54057 -0.884171 1.56538
                  CHANNELS 3 Zrotation Xrotation Yrotation
                  End Site
                  {
                    OFFSET -1.62519 -0.234802 1.16502
                  }
                }
              }
              JOINT rMid1
              {
                OFFSET -8.24714 1.18213 3.41376
                CHANNELS 3 Zrotation Xrotation Yrotation
                JOINT rMid2
                {
                  OFFSET -3.10165 -0.590103 1.0647
                  CHANNELS 3 Zrotation Xrotation Yrotation
                  End Site
                  {
                    OFFSET -2.48547 -0.328903 0.83742
                  }
                }
              }
              JOINT rRing1
              {
                OFFSET -8.82822 0.546677 1.51678
                CHANNELS 3 Zrotation Xrotation Yrotation
                JOINT rRing2
                {
                  OFFSET -2.60934 -0.819778 -0.0198488
                  CHANNELS 3 Zrotation Xrotation Yrotation
                  End Site
                  {
                    OFFSET -2.33842 -0.294052 0.168128
                  }
                }
              }
              JOINT rPinky1
              {
                OFFSET -8.27202 -0.0477905 -0.4584
                CHANNELS 3 Zrotation Xrotation Yrotation
                JOINT rPinky2
                {
                  OFFSET -1.82734 -0.647385 -0.700984
                  CHANNELS 3 Zrotation Xrotation Yrotation
                  End Site
                  {
                    OFFSET -1.69225 -0.51767 -0.607171
                  }
                }
              }
            }
          }
        }
      }
      JOINT lCollar
      {
        OFFSET 2.68224 19.2634 -4.8768
        CHANNELS 3 Zrotation Xrotation Yrotation
        JOINT lShldr
        {
          OFFSET 8.77824 -1.95073 1.46304
          CHANNELS 3 Zrotation Xrotation Yrotation
          JOINT lForeArm
          {
            OFFSET 28.1742 -1.7115 0.48768
            CHANNELS 3 Zrotation Xrotation Yrotation
            JOINT lHand
            {
              OFFSET 22.5879 0.773209 7.07136
              CHANNELS 3 Zrotation Xrotation Yrotation
              JOINT lThumb1
              {
                OFFSET 1.2192 -0.487915 3.41376
                CHANNELS 3 Zrotation Xrotation Yrotation
                JOINT lThumb2
                {
                  OFFSET 3.37035 -0.52449 3.41376
                  CHANNELS 3 Zrotation Xrotation Yrotation
                  End Site
                  {
                    OFFSET 1.78271 -1.18214 1.43049
                  }
                }
              }
              JOINT lIndex1
              {
                OFFSET 7.75947 0.938293 5.60832
                CHANNELS 3 Zrotation Xrotation Yrotation
                JOINT lIndex2
                {
                  OFFSET 2.54057 -0.884171 1.56538
                  CHANNELS 3 Zrotation Xrotation Yrotation
                  End Site
                  {
                    OFFSET 1.62519 -0.234802 1.16502
                  }
                }
              }
              JOINT lMid1
              {
                OFFSET 8.24714 1.18213 3.41376
                CHANNELS 3 Zrotation Xrotation Yrotation
                JOINT lMid2
                {
                  OFFSET 3.10165 -0.590103 1.0647
                  CHANNELS 3 Zrotation Xrotation Yrotation
                  End Site
                  {
                    OFFSET 2.48547 -0.328903 0.83742
                  }
                }
              }
              JOINT lRing1
              {
                OFFSET 8.82822 0.546677 1.51678
                CHANNELS 3 Zrotation Xrotation Yrotation
                JOINT lRing2
                {
                  OFFSET 2.60934 -0.819778 -0.0198488
                  CHANNELS 3 Zrotation Xrotation Yrotation
                  End Site
                  {
                    OFFSET 2.33842 -0.294052 0.168128
                  }
                }
              }
              JOINT lPinky1
              {
                OFFSET 8.27202 -0.0477905 -0.4584
                CHANNELS 3 Zrotation Xrotation Yrotation
                JOINT lPinky2
                {
                  OFFSET 1.82734 -0.647385 -0.700984
                  CHANNELS 3 Zrotation Xrotation Yrotation
                  End Site
                  {
                    OFFSET 1.69225 -0.51767 -0.607171
                  }
                }
              }
            }
          }
        }
      }
    }
  }
  JOINT rButtock
  {
    OFFSET -8.77824 4.35084 1.2192
    CHANNELS 3 Zrotation Xrotation Yrotation
    JOINT rThigh
    {
      OFFSET 0 -1.70687 -2.19456
      CHANNELS 3 Zrotation Xrotation Yrotation
      JOINT rShin
      {
        OFFSET 0 -36.8199 0.73152
        CHANNELS 3 Zrotation Xrotation Yrotation
        JOINT rFoot
        {
          OFFSET 0.73152 -45.1104 -5.12064
          CHANNELS 3 Zrotation Xrotation Yrotation
          End Site
          {
            OFFSET -1.1221 -3.69964 12.103
          }
        }
      }
    }
  }
  JOINT lButtock
  {
    OFFSET 8.77824 4.35084 1.2192
    CHANNELS 3 Zrotation Xrotation Yrotation
    JOINT lThigh
    {
      OFFSET 0 -1.70687 -2.19456
      CHANNELS 3 Zrotation Xrotation Yrotation
      JOINT lShin
      {
        OFFSET 0 -36.8199 0.73152
        CHANNELS 3 Zrotation Xrotation Yrotation
        JOINT lFoot
        {
          OFFSET -0.73152 -45.1104 -5.12064
          CHANNELS 3 Zrotation Xrotation Yrotation
          End Site
          {
            OFFSET 1.1221 -3.69964 12.103
          }
        }
      }
    }
  }
}
MOTION
Frames:	6
Frame Time:	0.00833333
162.228 75.2928 -142.173 2.066 0.00941717 -0.0394852 -2.71685 0.00115924 -0.0732875 -0.748382 0.0144132 -0.129496 3.13887e-014 -7.95139e-016 1.49089e-016 9.44134e-014 3.18055e-015 3.94463e-016 -0 0 0 -0 0 0 1.53555e-014 3.33896e-017 1.98785e-016 3.3202e-013 1.22998e-015 3.18055e-015 5.7001e-012 -1.6845e-012 -5.40694e-014 6.53457e-011 1.85546e-012 3.49861e-013 1.54128e-010 3.61786e-013 6.42472e-013 2.66164e-010 6.23389e-013 1.10047e-012 1.54132e-010 3.60993e-013 6.36111e-013 7.73091 5.47488 0.417314 1.54126e-010 3.60894e-013 6.45653e-013 2.90554 0.965183 0.102902 1.54134e-010 3.61689e-013 6.41677e-013 10.2786 0.731801 0.0259123 1.54122e-010 3.66559e-013 6.42472e-013 2.22167 -0.733487 -0.20892 1.52584e-014 2.91188e-017 -9.93923e-017 3.29336e-013 1.23619e-015 1.59028e-015 5.71541e-012 1.7344e-012 -6.36111e-015 6.53375e-011 -1.5624e-012 3.18055e-013 1.54145e-010 3.62507e-013 6.45653e-013 2.66218e-010 6.20208e-013 1.11399e-012 1.54139e-010 3.63776e-013 6.45653e-013 -7.73091 5.47488 -0.417314 1.54145e-010 3.62683e-013 6.39292e-013 -2.90554 0.965183 -0.102902 1.5414e-010 3.62384e-013 6.44062e-013 -10.2786 0.731801 -0.0259123 1.54147e-010 3.64174e-013 6.39292e-013 -2.22167 -0.733487 0.20892 -2.03217e-016 0 -3.88251e-019 -1.56626 -1.93222 0.00883142 -0.00885884 -2.07861 -0.0729283 -0.496879 3.9993 0.138093 2.03217e-016 0 3.88251e-019 -2.55931 -8.62931 0.27573 -0.00720719 10.0515 -0.186889 0.5466 -1.43362 -0.032007 
159.178 72.7549 -144.189 2.54579 1.90623 -12.4795 -2.01227 14.2798 -1.42724 -2.4446 0.728602 -0.527854 1.54832 7.1318 0.525217 -1.30317 -17.0258 0.617267 -0 0 0 -0 0 0 6.79568e-015 1.31817e-013 7.3138e-014 17.9307 12.3015 5.72191 -24.1047 -21.9577 14.6582 0.0167342 2.87017 0.401549 3.94807e-010 -8.60538e-010 -2.75896e-010 6.78312e-010 -1.47955e-009 -4.79599e-010 3.9481e-010 -8.6054e-010 -2.75906e-010 7.73091 5.47488 0.417314 3.94806e-010 -8.60541e-010 -2.75894e-010 2.90554 0.965183 0.102902 3.94813e-010 -8.6054e-010 -2.75896e-010 10.2786 0.731801 0.0259123 3.94801e-010 -8.60536e-010 -2.75894e-010 2.22167 -0.733487 -0.20892 6.75255e-015 1.31792e-013 7.28682e-014 6.99603 -9.78027 -17.722 14.5345 -11.7105 -14.4064 -0.525666 -16.2074 1.96225 8.50324e-010 2.49023e-011 4.96966e-010 1.43853e-009 4.28876e-011 8.87685e-010 8.50319e-010 2.49041e-011 4.96968e-010 -7.73091 5.47488 -0.417314 8.50325e-010 2.49029e-011 4.96961e-010 -2.90554 0.965183 -0.102902 8.50319e-010 2.49027e-011 4.96965e-010 -10.2786 0.731801 -0.0259123 8.50327e-010 2.49048e-011 4.9696e-010 -2.22167 -0.733487 0.20892 -2.03217e-016 0 -3.88251e-019 -1.3424 -24.2709 1.14323 0.0314337 19.5583 0.214482 -1.07177 0.981795 -3.98637 2.03217e-016 0 3.88251e-019 -4.40438 -19.862 4.23875 -0.13933 23.4419 -0.482482 1.21484 -7.20525 2.8756 
159.114 72.9564 -143.935 3.91756 3.6113 -25.6801 -0.436346 29.3559 -3.17018 -4.2354 1.47706 -0.948187 3.04532 14.6728 1.10796 -2.2022 -35.0227 1.48312 -0 0 0 -0 0 0 -1.97476e-014 2.80424e-013 1.62649e-013 33.9835 24.8779 12.7136 -34.7828 -39.8921 37.6138 -0.00952488 5.90192 0.829132 6.71405e-010 -1.78995e-009 -6.25917e-010 1.1515e-009 -3.07619e-009 -1.08749e-009 6.71408e-010 -1.78996e-009 -6.25933e-010 7.73091 5.47488 0.417314 6.71406e-010 -1.78996e-009 -6.25918e-010 2.90554 0.965183 0.102902 6.71413e-010 -1.78996e-009 -6.25917e-010 10.2786 0.731801 0.0259123 6.71401e-010 -1.78996e-009 -6.25914e-010 2.22167 -0.733487 -0.20892 -1.97309e-014 2.80376e-013 1.6241e-013 8.0538 -16.9717 -37.8073 23.3733 -21.5493 -31.419 0.340074 -33.2833 4.63911 1.66915e-009 4.69461e-011 1.02706e-009 2.81966e-009 8.58734e-011 1.83783e-009 1.66915e-009 4.69484e-011 1.02707e-009 -7.73091 5.47488 -0.417314 1.66915e-009 4.69472e-011 1.02706e-009 -2.90554 0.965183 -0.102902 1.66915e-009 4.69471e-011 1.02706e-009 -10.2786 0.731801 -0.0259123 1.66916e-009 4.69495e-011 1.02706e-009 -2.22167 -0.733487 0.20892 -2.03217e-016 0 -3.88251e-019 0.273074 -47.8684 3.1753 -0.233701 42.5276 0.669754 -2.14584 -2.15414 -8.33722 2.03217e-016 0 3.88251e-019 -4.38689 -31.5224 9.28657 -0.0878147 37.6173 -0.903798 2.57828 -13.2528 6.08157 
159.031 73.1345 -143.607 5.78871 4.63874 -37.4824 2.04552 42.7204 -5.45224 -5.80722 2.1565 -1.32538 4.2281 21.3879 1.67913 -2.26034 -51.0464 2.81707 -0 0 0 -0 0 0 -1.03239e-014 3.95384e-013 2.19016e-013 45.158 35.2634 20.6941 -31.0113 -44.5921 66.3631 -0.0716497 8.60881 1.21685 8.76163e-010 -2.58234e-009 -8.28971e-010 1.50261e-009 -4.43989e-009 -1.441e-009 8.76166e-010 -2.58234e-009 -8.28991e-010 7.73091 5.47488 0.417314 8.76166e-010 -2.58234e-009 -8.28974e-010 2.90554 0.965183 0.102902 8.76172e-010 -2.58234e-009 -8.2897e-010 10.2786 0.731801 0.0259123 8.76161e-010 -2.58234e-009 -8.28966e-010 2.22167 -0.733487 -0.20892 -1.02591e-014 3.95319e-013 2.18803e-013 5.06222 -18.2034 -56.478 26.3007 -25.9274 -48.4473 3.16522 -48.3337 8.52058 2.24268e-009 7.39819e-011 1.48961e-009 3.78316e-009 1.27422e-010 2.66083e-009 2.24268e-009 7.39846e-011 1.48961e-009 -7.73091 5.47488 -0.417314 2.24268e-009 7.39834e-011 1.48961e-009 -2.90554 0.965183 -0.102902 2.24268e-009 7.39834e-011 1.48961e-009 -10.2786 0.731801 -0.0259123 2.24269e-009 7.39861e-011 1.4896e-009 -2.22167 -0.733487 0.20892 -2.03217e-016 0 -3.88251e-019 5.72152 -68.7428 8.60297 -1.14295 62.823 1.6468 -3.51789 -4.93123 -12.279 2.03217e-016 0 3.88251e-019 -2.06936 -41.4487 15.3079 0.238781 50.215 -1.50022 4.38449 -18.5555 9.09934 
158.939 73.2792 -143.353 7.37824 4.98623 -45.6743 4.84233 51.9062 -7.94834 -6.85206 2.66378 -1.59401 4.92788 26.0457 2.12321 -1.33338 -62.1606 4.62133 -0 0 0 -0 0 0 8.90168e-014 4.26231e-013 1.92523e-013 50.7164 41.7333 27.7622 -28.0805 -39.9671 83.8627 -0.137295 10.5052 1.49334 9.0132e-010 -3.03214e-009 -6.64606e-010 1.54852e-009 -5.2212e-009 -1.15857e-009 9.01323e-010 -3.03214e-009 -6.64628e-010 7.73091 5.47488 0.417314 9.01323e-010 -3.03214e-009 -6.64609e-010 2.90554 0.965183 0.102902 9.01329e-010 -3.03214e-009 -6.64604e-010 10.2786 0.731801 0.0259123 9.01318e-010 -3.03214e-009 -6.64599e-010 2.22167 -0.733487 -0.20892 8.91006e-014 4.26158e-013 1.92324e-013 2.28873 -15.483 -68.754 26.8055 -25.7087 -60.4157 7.47393 -58.5578 13.2889 2.20296e-009 1.13498e-010 1.78327e-009 3.70255e-009 1.65379e-010 3.16593e-009 2.20295e-009 1.13501e-010 1.78327e-009 -7.73091 5.47488 -0.417314 2.20296e-009 1.135e-010 1.78327e-009 -2.90554 0.965183 -0.102902 2.20295e-009 1.135e-010 1.78327e-009 -10.2786 0.731801 -0.0259123 2.20296e-009 1.13502e-010 1.78326e-009 -2.22167 -0.733487 0.20892 -2.03217e-016 0 -3.88251e-019 28.0548 -82.4991 30.6725 -3.45652 76.4343 3.96019 -4.74785 -6.93739 -15.1381 2.03217e-016 0 3.88251e-019 1.3329 -47.8276 20.944 0.768698 58.8749 -2.18841 5.96054 -22.1818 11.2631 
158.905 73.4717 -143.074 8.07484 5.04345 -48.7755 6.35841 55.3531 -9.32026 -7.16592 2.92939 -1.70521 5.12928 27.829 2.30411 -0.535673 -66.4427 5.73315 -0 0 0 -0 0 0 3.68811e-013 3.31566e-013 2.2703e-014 52.4005 44.0971 30.7272 -28.0244 -36.8652 88.9394 -0.167933 11.2407 1.60194 6.0991e-010 -3.03421e-009 2.09806e-010 1.05717e-009 -5.24706e-009 3.52271e-010 6.09914e-010 -3.03421e-009 2.09784e-010 7.73091 5.47488 0.417314 6.09913e-010 -3.03421e-009 2.09803e-010 2.90554 0.965183 0.102902 6.0992e-010 -3.03421e-009 2.09807e-010 10.2786 0.731801 0.0259123 6.09908e-010 -3.03421e-009 2.09812e-010 2.22167 -0.733487 -0.20892 3.68867e-013 3.31502e-013 2.24999e-014 1.16811 -13.4995 -73.2661 26.959 -24.8906 -64.9348 10.1034 -62.3594 16.033 1.1343e-009 1.84898e-010 1.90139e-009 1.86577e-009 2.03483e-010 3.32337e-009 1.13429e-009 1.84901e-010 1.90139e-009 -7.73091 5.47488 -0.417314 1.1343e-009 1.84899e-010 1.90139e-009 -2.90554 0.965183 -0.102902 1.13429e-009 1.849e-010 1.90139e-009 -10.2786 0.731801 -0.0259123 1.1343e-009 1.84902e-010 1.90138e-009 -2.22167 -0.733487 0.20892 -2.03217e-016 0 -3.88251e-019 75.2281 -85.7547 77.5856 -5.6465 80.7232 6.14785 -5.40095 -7.98994 -16.4507 2.03217e-016 0 3.88251e-019 3.08152 -49.9742 23.5971 1.08251 62.0334 -2.55957 6.56102 -23.598 11.9415 
